HIERARCHY
ROOT Model
{
	OFFSET 0 0 0
	CHANNELS 6 Xposition Yposition Zposition Zrotation Xrotation Yrotation
	JOINT Model1
	{
		OFFSET 0 -2.25479 2.99384
		CHANNELS 3 Zrotation Xrotation Yrotation
		JOINT Model2
		{
			OFFSET 12.111 0 0
			CHANNELS 3 Zrotation Xrotation Yrotation
			JOINT Model3
			{
				OFFSET 11.5502 0 0
				CHANNELS 3 Zrotation Xrotation Yrotation
				JOINT Model4
				{
					OFFSET 11.781 0 0
					CHANNELS 3 Zrotation Xrotation Yrotation
					JOINT Model5
					{
						OFFSET 20.0601 0 0
						CHANNELS 3 Zrotation Xrotation Yrotation
						JOINT Model6
						{
							OFFSET 11.1962 0 0
							CHANNELS 3 Zrotation Xrotation Yrotation
							End Site
							{
								OFFSET 0 0 0
							}
						}
					}
					JOINT Model7
					{
						OFFSET 10.8223 0.417534 3.51114
						CHANNELS 3 Zrotation Xrotation Yrotation
						JOINT Model8
						{
							OFFSET -6.07944 0 0
							CHANNELS 3 Zrotation Xrotation Yrotation
							JOINT Model9
							{
								OFFSET -0.277405 10.39 -0.051239
								CHANNELS 3 Zrotation Xrotation Yrotation
								JOINT Model10
								{
									OFFSET -3.43909 -0.282043 1.86679
									CHANNELS 3 Zrotation Xrotation Yrotation
									JOINT Model11
									{
										OFFSET 13.0269 0 0
										CHANNELS 3 Zrotation Xrotation Yrotation
										JOINT Model12
										{
											OFFSET 10.8866 0 0
											CHANNELS 3 Zrotation Xrotation Yrotation
											JOINT Model13
											{
												OFFSET 16.7317 0 0
												CHANNELS 3 Zrotation Xrotation Yrotation
												JOINT Model14
												{
													OFFSET 11.8292 0 0
													CHANNELS 3 Zrotation Xrotation Yrotation
													JOINT Model15
													{
														OFFSET 4.82751 -3.73566 -0.836517
														CHANNELS 3 Zrotation Xrotation Yrotation
														JOINT Model16
														{
															OFFSET 3.75311 -0.0582886 -0.0186462
															CHANNELS 3 Zrotation Xrotation Yrotation
															JOINT Model17
															{
																OFFSET 2.88687 0.0192337 0.014801
																CHANNELS 3 Zrotation Xrotation Yrotation
																End Site
																{
																	OFFSET 0 0 0
																}
															}
														}
													}
													JOINT Model18
													{
														OFFSET 9.72195 -3.06458 0.23877
														CHANNELS 3 Zrotation Xrotation Yrotation
														JOINT Model19
														{
															OFFSET 4.6113 0 0
															CHANNELS 3 Zrotation Xrotation Yrotation
															JOINT Model20
															{
																OFFSET 2.89691 -7.62939e-006 0
																CHANNELS 3 Zrotation Xrotation Yrotation
																End Site
																{
																	OFFSET 0 0 0
																}
															}
														}
													}
													JOINT Model21
													{
														OFFSET 9.54431 -0.745064 0.588928
														CHANNELS 3 Zrotation Xrotation Yrotation
														JOINT Model22
														{
															OFFSET 5.33978 0 0
															CHANNELS 3 Zrotation Xrotation Yrotation
															JOINT Model23
															{
																OFFSET 3.03619 7.62939e-006 0
																CHANNELS 3 Zrotation Xrotation Yrotation
																End Site
																{
																	OFFSET 0 0 0
																}
															}
														}
													}
													JOINT Model24
													{
														OFFSET 9.4776 1.51286 0.485107
														CHANNELS 3 Zrotation Xrotation Yrotation
														JOINT Model25
														{
															OFFSET 4.96136 7.62939e-006 0
															CHANNELS 3 Zrotation Xrotation Yrotation
															JOINT Model26
															{
																OFFSET 2.51965 0 0
																CHANNELS 3 Zrotation Xrotation Yrotation
																End Site
																{
																	OFFSET 0 0 0
																}
															}
														}
													}
													JOINT Model27
													{
														OFFSET 9.34247 3.34117 -0.239288
														CHANNELS 3 Zrotation Xrotation Yrotation
														JOINT Model28
														{
															OFFSET 3.28259 2.28882e-005 0
															CHANNELS 3 Zrotation Xrotation Yrotation
															JOINT Model29
															{
																OFFSET 2.12921 0 0
																CHANNELS 3 Zrotation Xrotation Yrotation
																End Site
																{
																	OFFSET 0 0 0
																}
															}
														}
													}
												}
											}
										}
									}
								}
							}
						}
					}
					JOINT Model30
					{
						OFFSET 10.8223 0.4179 -3.51108
						CHANNELS 3 Zrotation Xrotation Yrotation
						JOINT Model31
						{
							OFFSET 6.07944 0 0
							CHANNELS 3 Zrotation Xrotation Yrotation
							JOINT Model32
							{
								OFFSET 0.277405 -10.39 0.051239
								CHANNELS 3 Zrotation Xrotation Yrotation
								JOINT Model33
								{
									OFFSET 3.43909 0.282043 -1.86679
									CHANNELS 3 Zrotation Xrotation Yrotation
									JOINT Model34
									{
										OFFSET -13.0269 0 0
										CHANNELS 3 Zrotation Xrotation Yrotation
										JOINT Model35
										{
											OFFSET -10.8866 0 0
											CHANNELS 3 Zrotation Xrotation Yrotation
											JOINT Model36
											{
												OFFSET -16.7317 0 0
												CHANNELS 3 Zrotation Xrotation Yrotation
												JOINT Model37
												{
													OFFSET -11.8292 0 0
													CHANNELS 3 Zrotation Xrotation Yrotation
													JOINT Model38
													{
														OFFSET -4.82751 3.73566 0.836517
														CHANNELS 3 Zrotation Xrotation Yrotation
														JOINT Model39
														{
															OFFSET -3.75311 0.0582886 0.0186462
															CHANNELS 3 Zrotation Xrotation Yrotation
															JOINT Model40
															{
																OFFSET -2.8869 -0.0192337 -0.014801
																CHANNELS 3 Zrotation Xrotation Yrotation
																End Site
																{
																	OFFSET 0 0 0
																}
															}
														}
													}
													JOINT Model41
													{
														OFFSET -9.72198 3.06459 -0.23877
														CHANNELS 3 Zrotation Xrotation Yrotation
														JOINT Model42
														{
															OFFSET -4.61133 0 0
															CHANNELS 3 Zrotation Xrotation Yrotation
															JOINT Model43
															{
																OFFSET -2.89691 0 0
																CHANNELS 3 Zrotation Xrotation Yrotation
																End Site
																{
																	OFFSET 0 0 0
																}
															}
														}
													}
													JOINT Model44
													{
														OFFSET -9.54431 0.745064 -0.588928
														CHANNELS 3 Zrotation Xrotation Yrotation
														JOINT Model45
														{
															OFFSET -5.33978 0 0
															CHANNELS 3 Zrotation Xrotation Yrotation
															JOINT Model46
															{
																OFFSET -3.03619 -1.52588e-005 0
																CHANNELS 3 Zrotation Xrotation Yrotation
																End Site
																{
																	OFFSET 0 0 0
																}
															}
														}
													}
													JOINT Model47
													{
														OFFSET -9.4776 -1.51286 -0.485107
														CHANNELS 3 Zrotation Xrotation Yrotation
														JOINT Model48
														{
															OFFSET -4.96136 -1.52588e-005 0
															CHANNELS 3 Zrotation Xrotation Yrotation
															JOINT Model49
															{
																OFFSET -2.51965 0 0
																CHANNELS 3 Zrotation Xrotation Yrotation
																End Site
																{
																	OFFSET 0 0 0
																}
															}
														}
													}
													JOINT Model50
													{
														OFFSET -9.34247 -3.34118 0.239288
														CHANNELS 3 Zrotation Xrotation Yrotation
														JOINT Model51
														{
															OFFSET -3.28259 -1.90735e-005 0
															CHANNELS 3 Zrotation Xrotation Yrotation
															JOINT Model52
															{
																OFFSET -2.12921 0 0
																CHANNELS 3 Zrotation Xrotation Yrotation
																End Site
																{
																	OFFSET 0 0 0
																}
															}
														}
													}
												}
											}
										}
									}
								}
							}
						}
					}
				}
			}
		}
	}
	JOINT Model53
	{
		OFFSET 4.38025 -2.14632 -1.11517
		CHANNELS 3 Zrotation Xrotation Yrotation
		JOINT Model54
		{
			OFFSET 0 0 4.94998
			CHANNELS 3 Zrotation Xrotation Yrotation
			JOINT Model55
			{
				OFFSET 18.5642 0 0
				CHANNELS 3 Zrotation Xrotation Yrotation
				JOINT Model56
				{
					OFFSET 21.2884 0 0
					CHANNELS 3 Zrotation Xrotation Yrotation
					JOINT Model57
					{
						OFFSET 30.261 0 0
						CHANNELS 3 Zrotation Xrotation Yrotation
						JOINT Model58
						{
							OFFSET 11.7259 0 0
							CHANNELS 3 Zrotation Xrotation Yrotation
							JOINT Model59
							{
								OFFSET 10.682 0 0
								CHANNELS 3 Zrotation Xrotation Yrotation
								End Site
								{
									OFFSET 0 0 0
								}
							}
						}
					}
				}
			}
		}
	}
	JOINT Model60
	{
		OFFSET -4.38025 -2.14632 -1.11517
		CHANNELS 3 Zrotation Xrotation Yrotation
		JOINT Model61
		{
			OFFSET 0 0 -4.94998
			CHANNELS 3 Zrotation Xrotation Yrotation
			JOINT Model62
			{
				OFFSET -18.5642 0 0
				CHANNELS 3 Zrotation Xrotation Yrotation
				JOINT Model63
				{
					OFFSET -21.2884 0 0
					CHANNELS 3 Zrotation Xrotation Yrotation
					JOINT Model64
					{
						OFFSET -30.261 0 0
						CHANNELS 3 Zrotation Xrotation Yrotation
						JOINT Model65
						{
							OFFSET -11.7259 0 0
							CHANNELS 3 Zrotation Xrotation Yrotation
							JOINT Model66
							{
								OFFSET -10.682 0 0
								CHANNELS 3 Zrotation Xrotation Yrotation
								End Site
								{
									OFFSET 0 0 0
								}
							}
						}
					}
				}
			}
		}
	}
}
MOTION
Frames: 4
Frame Time: 0.033333
-267.615 158.752 2.97446 70.343 -6.66325 92.579 -180 4.29621e-031 -90 4.7872 0.765165 -0.798666 9.58568 1.46017 -1.65863 9.58568 1.4606 -1.65871 31.0153 9.77585 5.57373 -57.0554 5.57438 7.60265 120.092 75.5343 58.4939 2.33367 -2.41975 -0.788402 -167.277 84.4999 48.8109 167.495 -27.939 -22.5785 1.93859e-005 -12.9595 3.1326e-005 -36.4675 -1.07665 0.870915 6.37306e-007 -2.18092 5.63759e-007 2.28525 0.0377291 1.9127 -72.0648 39.0385 39.3397 33.3638 2.10362 14.835 0.588947 0.308273 6.35287 -99.6409 81.413 100.35 -0.0181409 2.7642e-005 -0.117315 -0.124139 0.00241095 -0.799296 -79.8382 79.5773 80.5374 -0.000225776 -0.000221049 2.21705e-005 -0.000956227 0.000122724 -2.73531e-005 -66.7416 80.4058 67.2171 -0.000437132 1.58131e-005 -2.73453e-005 -0.000136604 -0.000109471 -5.46748e-005 -6.42159 81.2158 8.01779 -0.000218575 1.67062e-005 0.000212109 0.000901572 -0.000185075 -0.000218609 -59.9282 75.5373 58.5147 -4.45266 -2.12039 0.341745 -167.277 84.4999 48.8109 -160.957 -11.7166 9.23106 6.18804e-006 2.14958 2.83054e-005 -60.7816 -2.60635 0.532385 -8.2783e-006 -4.57964 5.22139e-006 18.8486 -2.38556 -14.2987 -72.0648 39.0385 39.3397 33.3638 2.10361 14.835 0.588946 0.308273 6.35287 -99.6409 81.413 100.35 -0.0181409 3.01558e-005 -0.117315 -0.124139 0.00241123 -0.799296 -79.8382 79.5773 80.5374 -0.000260644 -0.000218491 2.35959e-005 -0.000956224 0.000123097 -2.72863e-005 -66.7416 80.4058 67.2171 -0.00043713 1.49571e-005 -2.72962e-005 -0.0001366 -0.000109181 -5.46084e-005 -6.42159 81.2158 8.01779 -0.000218556 1.96735e-005 0.000212319 0.000901596 -0.000191118 -0.000218536 0.000811311 0.56661 89.91 -64.5907 0.78114 -11.435 -2.13109e-006 0.688014 -1.1983e-007 64.524 2.57604 -0.00751667 2.07513e-007 3.75414 2.15681e-007 -60.4007 25.9058 -17.2619 -38.0389 -7.08545 0.0678932 -180 -0.566579 -90.09 -60.1978 -4.10164 1.61635 9.92833e-007 -6.04687 -1.04502e-008 63.2382 -2.03114 -0.00724284 3.10355e-007 -3.1556 -2.65581e-007 -60.9137 19.2704 -12.7941 -39.1496 -11.0025 -0.159879 
-266.526 158.117 2.16943 71.2109 -5.93079 93.3749 -180 4.29621e-031 -90 4.28155 0.60023 -0.0475787 8.5641 1.19459 -0.140011 8.5641 1.19502 -0.140076 23.463 9.33552 4.62919 -54.1499 5.36543 7.83372 120.092 75.5343 58.4939 4.70489 -1.9773 -1.01672 -167.277 84.4999 48.8109 169.289 -27.1228 -22.427 1.83278e-005 -11.0599 3.11058e-005 -27.2596 -1.79428 -3.63722 6.46897e-007 -3.15415 5.64205e-007 1.03119 0.016692 1.78884 -72.0648 39.0385 39.3397 33.3638 2.10362 14.835 0.588947 0.308273 6.35287 -99.6409 81.413 100.35 -0.0181409 2.7642e-005 -0.117315 -0.124139 0.00241095 -0.799296 -79.8382 79.5773 80.5374 -0.000225776 -0.000221049 2.21705e-005 -0.000956227 0.000122724 -2.73531e-005 -66.7416 80.4058 67.2171 -0.000437132 1.58131e-005 -2.73453e-005 -0.000136604 -0.000109471 -5.46748e-005 -6.42159 81.2158 8.01779 -0.000218575 1.67062e-005 0.000212109 0.000901572 -0.000185075 -0.000218609 -59.9282 75.5373 58.5147 -3.0213 -2.35299 0.0329222 -167.277 84.4999 48.8109 -160.586 -16.9572 3.39756 7.94737e-006 -1.41286 2.82941e-005 -58.9207 -4.58579 0.523559 -8.00531e-006 -7.55063 5.25025e-006 19.8378 -2.84476 -16.1588 -72.0648 39.0385 39.3397 33.3638 2.10361 14.835 0.588946 0.308273 6.35287 -99.6409 81.413 100.35 -0.0181409 3.01558e-005 -0.117315 -0.124139 0.00241123 -0.799296 -79.8382 79.5773 80.5374 -0.000260644 -0.000218491 2.35959e-005 -0.000956224 0.000123097 -2.72863e-005 -66.7416 80.4058 67.2171 -0.00043713 1.49571e-005 -2.72962e-005 -0.0001366 -0.000109181 -5.46084e-005 -6.42159 81.2158 8.01779 -0.000218556 1.96735e-005 0.000212319 0.000901596 -0.000191118 -0.000218536 0.000811311 0.56661 89.91 -63.8835 1.47617 -9.74787 -2.12854e-006 1.90741 -1.19888e-007 66.5799 1.41018 -0.00764203 2.14107e-007 2.00337 2.1535e-007 -63.9435 25.8155 -16.2085 -37.4461 -5.45243 0.105464 -180 -0.566579 -90.09 -63.1136 -4.09915 -0.201427 9.92834e-007 -6.04084 -1.04501e-008 68.2513 -0.411419 -0.00749047 3.21592e-007 -0.730838 -2.652e-007 -52.2445 18.5097 -14.0462 -43.2721 -17.2941 -1.48798 
-265.307 157.915 1.41943 73.1379 -5.7172 93.4068 -180 4.29621e-031 -90 3.82737 0.474285 0.325037 7.65246 0.968937 0.617802 7.65246 0.969371 0.617744 17.7023 9.22124 4.22724 -51.4746 5.25889 8.31833 120.092 75.5343 58.4939 7.927 -1.35453 -1.34315 -167.277 84.4999 48.8109 172.369 -20.9075 -22.2644 1.26525e-005 -0.54765 3.05295e-005 -16.9432 -7.83228 -10.0197 7.37698e-007 -12.2044 5.76377e-007 -0.0148167 0.000731409 0.662945 -72.0648 39.0385 39.3397 33.3638 2.10362 14.835 0.588947 0.308273 6.35287 -99.6409 81.413 100.35 -0.0181409 2.7642e-005 -0.117315 -0.124139 0.00241095 -0.799296 -79.8382 79.5773 80.5374 -0.000225776 -0.000221049 2.21705e-005 -0.000956227 0.000122724 -2.73531e-005 -66.7416 80.4058 67.2171 -0.000437132 1.58131e-005 -2.73453e-005 -0.000136604 -0.000109471 -5.46748e-005 -6.42159 81.2158 8.01779 -0.000218575 1.67062e-005 0.000212109 0.000901572 -0.000185075 -0.000218609 -59.9282 75.5373 58.5147 -1.68068 -1.03005 0.266678 -167.277 84.4999 48.8109 -160.261 -21.3029 -1.70256 9.34335e-006 -4.23317 2.83628e-005 -57.3573 -5.28451 0.515292 -7.90815e-006 -8.59903 5.26389e-006 21.1264 -3.22905 -17.1896 -72.0648 39.0385 39.3397 33.3638 2.10361 14.835 0.588946 0.308273 6.35287 -99.6409 81.413 100.35 -0.0181409 3.01558e-005 -0.117315 -0.124139 0.00241123 -0.799296 -79.8382 79.5773 80.5374 -0.000260644 -0.000218491 2.35959e-005 -0.000956224 0.000123097 -2.72863e-005 -66.7416 80.4058 67.2171 -0.00043713 1.49571e-005 -2.72962e-005 -0.0001366 -0.000109181 -5.46084e-005 -6.42159 81.2158 8.01779 -0.000218556 1.96735e-005 0.000212319 0.000901596 -0.000191118 -0.000218536 0.000811311 0.56661 89.91 -61.8599 1.17366 -9.32018 -2.12892e-006 1.72511 -1.19876e-007 67.8475 1.46799 -0.00775969 2.13785e-007 2.08895 2.15362e-007 -64.985 25.2202 -15.5673 -37.3385 -5.16333 0.110897 -180 -0.566579 -90.09 -65.0367 -3.57695 -1.66994 9.92962e-007 -5.34193 -1.04374e-008 73.0824 0.506336 -0.00768252 3.27947e-007 0.642123 -2.65195e-007 -45.8227 19.1871 -16.0118 -43.2453 -17.2404 -1.42217 
-263.621 157.928 0.801453 76.369 -6.01906 92.692 -180 4.29621e-031 -90 3.4771 0.410205 0.36146 6.95184 0.841192 0.697383 6.95184 0.841626 0.69733 15.105 9.49042 5.00555 -49.9699 6.01426 7.8975 120.092 75.5343 58.4939 11.6722 -0.417994 -1.72428 -167.277 84.4999 48.8109 174.004 -18.069 -22.9464 9.88918e-006 4.62842 3.06279e-005 -8.77252 -10.5628 -9.34573 7.79081e-007 -16.1587 5.86521e-007 -0.49328 0.00532526 -1.10886 -72.0648 39.0385 39.3397 33.3638 2.10362 14.835 0.588947 0.308273 6.35287 -99.6409 81.413 100.35 -0.0181409 2.7642e-005 -0.117315 -0.124139 0.00241095 -0.799296 -79.8382 79.5773 80.5374 -0.000225776 -0.000221049 2.21705e-005 -0.000956227 0.000122724 -2.73531e-005 -66.7416 80.4058 67.2171 -0.000437132 1.58131e-005 -2.73453e-005 -0.000136604 -0.000109471 -5.46748e-005 -6.42159 81.2158 8.01779 -0.000218575 1.67062e-005 0.000212109 0.000901572 -0.000185075 -0.000218609 -59.9282 75.5373 58.5147 0.529535 0.325561 0.321256 -167.277 84.4999 48.8109 -160.378 -23.7846 -4.82628 1.00961e-005 -5.74625 2.84283e-005 -55.9936 -4.53664 0.506715 -8.01215e-006 -7.47668 5.24935e-006 22.2931 -3.46664 -17.4643 -72.0648 39.0385 39.3397 33.3638 2.10361 14.835 0.588946 0.308273 6.35287 -99.6409 81.413 100.35 -0.0181409 3.01558e-005 -0.117315 -0.124139 0.00241123 -0.799296 -79.8382 79.5773 80.5374 -0.000260644 -0.000218491 2.35959e-005 -0.000956224 0.000123097 -2.72863e-005 -66.7416 80.4058 67.2171 -0.00043713 1.49571e-005 -2.72962e-005 -0.0001366 -0.000109181 -5.46084e-005 -6.42159 81.2158 8.01779 -0.000218556 1.96735e-005 0.000212319 0.000901596 -0.000191118 -0.000218536 0.000811311 0.56661 89.91 -57.3746 -0.071446 -9.56854 -2.13166e-006 0.416815 -1.19824e-007 68.1608 1.87859 -0.00779632 2.11468e-007 2.70458 2.15459e-007 -65.6728 25.8128 -15.7391 -37.6873 -6.12745 0.0919806 -180 -0.566579 -90.09 -65.0269 -2.7324 -2.80283 9.93181e-007 -4.14546 -1.04193e-008 77.691 -0.883043 -0.00785081 3.18288e-007 -1.44464 -2.65262e-007 -46.7146 21.572 -17.7372 -37.7733 -7.1417 -0.153095 
